<?xml version="1.0" encoding="UTF-8"?>
<svg id="Layer_2" data-name="Layer 2" xmlns="http://www.w3.org/2000/svg" viewBox="0 0 768.99 337.4">
  <g id="Layer_1-2" data-name="Layer 1">
    <g>
      <path d="M367.7,177c-1.8-3-5.6-3.4-8.2-5.6-19.6-17-30.8-44-38.6-68.2-1.6-5.2-3.2-10.6-4.8-16-.6-2.2-1-4.4-1.8-6.4-1.6-4.6-5.4-5.4-9.8-5.4-13.6,0-16.8,27.8-16.8,37.8,0,3,.4,5.8,.4,8.8,2.8,3,8.4,8.2,8.4,12.6,0,6.8-13.2,6.6-17.6,6.6-8,0-16.2-.2-24.2-.6-3.2-.2-7.2-.2-10.4-.8-2.4-.6-4-1.4-4.2-4-1-7.8,14-11.6,16.4-19.2l12.4-39.8v-1.4l11-46.6c.2-.8,.2-2,.2-2.8,0-12-11.8-12.6-21-12.6-20.2,0-38.6,.6-52,18-1.2,0-2,.4-2.6,1.4l1.4,1.4c-1.2,9.4,.8,23.4,13,23.4,9.8,0,13.4-13.8,24-13.8,7,0,11,4,11,11,0,15.6-17.4,20.6-30.2,20.6-20.4,0-35.8-11.8-35.8-33.2,0-27.6,26.4-41,51-41,1,0,2.2,.2,2.6,1.4,.8-2,7.6-2.6,9.6-2.6h97.4c20,0,37.2,12.8,37.2,33.8,0,36.2-41.4,27.2-41.4,42.2,0,5,1.2,9.6,2.8,14.4,9.6,28.8,18.6,63.4,42.6,83.8,3,.8,5.8,1.4,9,1.4,11.4,0,16.2-15.2,28-15.2,6.4,0,11.2,4.2,11.2,10.8,0,14.6-20,18.2-31.2,18.2-6.4,0-15-5.6-21.2-4.2l-17.8-8.2ZM192.1,56.8l.4-.6c0-.2-.2-.6-.4-.8-.6,0-.6,1.4,0,1.4Zm1.4-13.6l.4-.6c0-.2-.2-.6-.4-.8-.8,0-.8,1.4,0,1.4Zm1.4-4.8c0,1,1.2,.6,1.4,0,0-1-1.4-.6-1.4,0Zm0,8.2h1.4v-1.4l-1.4,1.4Zm1.4-25.4l.4-.6c0-.2-.2-.6-.4-.8-.8,0-.8,1.4,0,1.4Zm1.2,26.8c0,.6,2.4,.8,2.8,0,0-.8-2.8-.8-2.8,0Zm1.4-10.4c.8,0,.8-1.4,0-1.4-.6,0-.6,1.4,0,1.4Zm1.4,15.2c.8,0,.8-1.4,0-1.4-.6,0-.6,1.4,0,1.4Zm1.4-19.2l.4-.6c0-.2-.2-.6-.4-.8-.6,0-.6,1.4,0,1.4Zm2.8,4l.4-.6c0-.2-.2-.6-.4-.8-.8,0-.8,1.4,0,1.4Zm0,12.4l.4-.6c0-.2-.2-.6-.4-.8-.8,0-.8,1.4,0,1.4Zm1.4-22l.4-.6c0-.2-.2-.6-.4-.8-.8,0-.8,1.4,0,1.4Zm4-4c.8,0,.8-1.4,0-1.4-.6,0-.6,1.4,0,1.4Zm17.8-11c.8,0,.8-1.4,0-1.4-.6,0-.6,1.4,0,1.4Zm2.8-5.6c.8,0,.8-1.4,0-1.4-.6,0-.6,1.4,0,1.4Zm2.6-.6c-.4,.8-.6,2,0,2.8,1,0,1-2.4,.2-2.8h-.2Zm5.6,4.8c.8,0,.8-1.4,0-1.4-.6,0-.6,1.4,0,1.4Zm4.2-4.8c0,1,1.2,.6,1.4,0,0-1-1.4-.6-1.4,0Zm8.2,3.4l.4-.6c0-.2-.2-.6-.4-.8-.6,0-.6,1.4,0,1.4Zm1.4,42.6l.4-.6c0-.2-.2-.6-.4-.8-.8,0-.8,1.4,0,1.4Zm11-50.8l.4-.6c0-.2-.2-.6-.4-.8-.8,0-.8,1.4,0,1.4Zm2.6,111.2c.8,0,.8-1.4,0-1.4-.6,0-.6,1.4,0,1.4Zm2.8-27.6c.8,0,.8-1.4,0-1.4-.6,0-.6,1.4,0,1.4Zm0,8.2c1,0,.6-1.2,0-1.2-.4,0-.6,1.2,0,1.2Zm1.4-10.8l.4-.6c0-.2-.2-.6-.4-.8-.6,0-.6,1.4,0,1.4Zm5.4-18c1,0,.6-1.2,0-1.2-.4,0-.6,1.2,0,1.2Zm1.4,39.8c.8,0,.8-1.4,0-1.4-.6,0-.6,1.4,0,1.4Zm1.4,9.6c1,0,.6-1.2,0-1.2-.4,0-.6,1.2,0,1.2Zm0-7.4c1.8-.6,1.8-4,1.8-5.6h-1.8v5.6Zm1.4,29.4l.4-.6c0-.2-.2-.6-.4-.8-.6,0-.6,1.4,0,1.4Zm4.2,0l.4-.6c0-.2-.2-.6-.4-.8-.8,0-.8,1.4,0,1.4Zm0-33.6h2.6c-.6-1.2-1.4-1.4-2.6-1.4v1.4Zm1.2,13c.8,0,.8-1.4,0-1.4-.6,0-.6,1.4,0,1.4Zm1.4-28.8c.8,0,.8-1.4,0-1.4-.6,0-.6,1.4,0,1.4Zm1.4,2l1.4-1.2h-1.4v1.2Zm4.2-43.2c.2-.2,.4-.4,.4-.6l-.4-.6c-.6,0-1,1.2,0,1.2Zm0-43.8l.4-.6c0-.2-.2-.6-.4-.8-.8,0-.8,1.4,0,1.4Zm0,8.2l.4-.6c0-.2-.2-.6-.4-.8-.8,0-.8,1.4,0,1.4Zm0,122.2l.4-.6c0-.2-.2-.6-.4-.8-.8,0-.8,1.4,0,1.4Zm6.8-82.4c.8,0,.8-1.4,0-1.4-.6,0-.6,1.4,0,1.4Zm1.4,24.6c.2-.2,.4-.4,.4-.6l-.4-.6c-.4,0-.6,1.2,0,1.2Zm1.4-72.6l.4-.6c0-.2-.2-.6-.4-.8-.8,0-.8,1.4,0,1.4Zm55,30.2c0-18.2-19.4-21.4-33.8-21.4-16,0-18.8,30.6-18.8,42.2,0,.6,.2,4.4,.4,4.6l2.6,1.4c19.4,.6,49.6,0,49.6-26.8Zm-51,35.6c.8,0,.8-1.4,0-1.4-.6,0-.6,1.4,0,1.4Zm.8-61.6l.4,.6c1,0,1-1,.2-1.4-.4,0-.6,.4-.6,.8Zm11.6,67.2c.8,0,.8-1.4,0-1.4-.6,0-.6,1.4,0,1.4Zm11-12.4l.4-.6c0-.2-.2-.6-.4-.8-.6,0-.6,1.4,0,1.4Zm9.6,31.6l.4-.6c0-.2-.2-.6-.4-.8-.6,0-.6,1.4,0,1.4Zm1.4-31.6l.4-.6c0-.2-.2-.6-.4-.8-.8,0-.8,1.4,0,1.4Zm-.6,15.2l.4,.6c1,0,1-1,.2-1.4-.4,0-.6,.4-.6,.8Zm11.6,52l.4-.6c0-.2-.2-.6-.4-.8-.8,0-.8,1.4,0,1.4Zm5.4-67.2c.8,0,.8-1.4,0-1.4-.6,0-.6,1.4,0,1.4Zm0,64.4c.8,0,.8-1.4,0-1.4-.6,0-.6,1.4,0,1.4Zm4.2-87v-1.4h-1.4l1.4,1.4Zm3.8,126c-.4,0-1.2,.8-1.2,1.2,0,.8,1.4,.2,1.4-.6v-.4l-.2-.2Zm.2-2c1,0,.6-1.2,0-1.2-.4,0-.6,1.2,0,1.2Zm2.8-125.4c0,1,1.2,.6,1.4,0,0-1-1.4-.6-1.4,0Zm1.4,117.2l.4-.6c0-.2-.2-.6-.4-.8-.6,0-.6,1.4,0,1.4Zm0,12.4l.4-.6c0-.2-.2-.6-.4-.8-.6,0-.6,1.4,0,1.4Zm0,9.6l.4-.6c0-.2-.2-.6-.4-.8-.6,0-.6,1.4,0,1.4Zm1.4-4.2c.2-.2,.4-.4,.4-.6l-.4-.6c-.6,0-1,1.2,0,1.2Zm8.2-131.6l.4-.6c0-.2-.2-.6-.4-.8-.6,0-.6,1.4,0,1.4Zm0,133l.4-.6c0-.2-.2-.6-.4-.8-.6,0-.6,1.4,0,1.4Zm1.4-135.8l.4-.6c0-.2-.2-.6-.4-.8-.8,0-.8,1.4,0,1.4Zm0,137.2l.4-.6c0-.2-.2-.6-.4-.8-.8,0-.8,1.4,0,1.4Zm9.6,5.6l.4-.6c0-.2-.2-.6-.4-.8-.8,0-.8,1.4,0,1.4Z"/>
      <path d="M418.5,144.2c-19.8,0-32.2-14.6-32.2-33.8,0-23.2,13.6-45.2,34.4-55.6,.8-1,8.2-4,9.6-4h24.6c1.2,2.2,3.6,.4,4.2,2.8-.2,1-.2,1.8-.2,2.8,0,3.4,4.4,1.8,4.4,4.6,0,1.6-1.6,2.8-2.8,3.4,5,0,2.6,7-2,7v-5.6h-2.2v7.2c-1,0-2.2-.6-2.6-1.6-.4,2.2,2.2,9.8,3.4,9.8,2.4,0,5.4-10,6.8-10,1,0,1.8,.6,2,1.6,1.6-2.4,4.2-4,7-4.2-.6,1,.4,2.2,1.2,2.8v11l-2.6,2.6,1.4,1.4c-1,1.4-2.6,2.2-4.2,2.8h-7c-9.4,0-18.6,.4-28,.8-3.6,.2-8.2,0-11.6,.6-2.2,.4-4.2,2.4-5.6,4-1.6,6.2-4.2,12.2-4.2,18.6,0,16,8.4,11.4,11.2,17.2,6.6-1.4,14.2-2,19.2-7l13.6-13.6c.2-.2,3.8-1.4,4.2-1.4,3-.6,5.6,2.6,5.6,5.4,0,11.2-20.6,20.8-20.8,23.4-8.6,4.6-17,7-26.8,7Zm-23.8-55.8c.2-.2,.4-.4,.4-.6l-.4-.6c-.6,0-1,1.2,0,1.2Zm2.6-2c0,1,1.2,.6,1.4,0,0-1-1.4-.6-1.4,0Zm5.6-.6l.4-.6c0-.2-.2-.6-.4-.8-.8,0-.8,1.4,0,1.4Zm4,15c.8,0,.8-1.4,0-1.4-.6,0-.6,1.4,0,1.4Zm0-12.4c1,0,.6-1.2,0-1.2-.4,0-.6,1.2,0,1.2Zm2.8-23.2l.4-.6c0-.2-.2-.6-.4-.8-.6,0-.6,1.4,0,1.4Zm0,13.6c.2-.2,.4-.4,.4-.6l-.4-.6c-.4,0-.6,1.2,0,1.2Zm1.4,4.2l.4-.6c0-.2-.2-.6-.4-.8-.8,0-.8,1.4,0,1.4Zm2.4,44.4c-.6,0-1.2,1-1.2,1.4l.6,.4c.6,0,1-1,1-1.6l-.4-.2Zm.4-37.6l.4-.6c0-.2-.2-.6-.4-.8-.8,0-.8,1.4,0,1.4Zm1.2-24.6c.8,0,.8-1.4,0-1.4-.6,0-.6,1.4,0,1.4Zm1.4,2.8c.8,0,.8-1.4,0-1.4-.6,0-.6,1.4,0,1.4Zm2.4-2.6c2.6,0,6-.8,7-3.4-1.6,2.2-3.6,.8-5.2-.2-1.6,0-1.8,2.4-1.8,3.6Zm.4,3.8c.2-.2,.4-.4,.4-.6l-.4-.6c-.4,0-.6,1.2,0,1.2Zm4.2,5.6l.4-.6c0-.2-.2-.6-.4-.8-.8,0-.8,1.4,0,1.4Zm0,8.2l.4-.6c0-.2-.2-.6-.4-.8-.8,0-.8,1.4,0,1.4Zm1.4-26l.4-.6c0-.2-.2-.6-.4-.8-.8,0-.8,1.4,0,1.4Zm0,85l.4-.6c0-.2-.2-.6-.4-.8-.8,0-.8,1.4,0,1.4Zm2.6-79c0,1,1,1,1.4,.2,0-1.2-1.4-.8-1.4-.2Zm16.6,11c2.6-.4,2.4-11-7-11-4.6,0-9.6,3.2-9.6,8.2,0,1.8,1.4,3.6,1.4,5.6l15.2-2.8Zm-15.2-17c.8,0,.8-1.4,0-1.4-.6,0-.6,1.4,0,1.4Zm1.4,21.8c.2-.2,.4-.4,.4-.6l-.4-.6c-.4,0-.6,1.2,0,1.2Zm2.8-21.2h4c-.8-2-3.2-2-4,0Zm1.4-4.8l.4-.6c0-.2-.2-.6-.4-.8-.8,0-.8,1.4,0,1.4Zm1.2,35c0,1,1.2,.6,1.4,0,0-1-1.4-.6-1.4,0Zm2.8-6.2c.8,0,.8-1.4,0-1.4-.6,0-.6,1.4,0,1.4Zm1.4,48.8h1.4v-1.4l-1.4,1.4Zm2.8-70.8c.2-.2,.4-.4,.4-.6l-.4-.6c-.6,0-1,1.2,0,1.2Zm2.6,66.6v-1.4h-1.2l1.2,1.4Zm0-39.8c1.6,.4,2.2,0,2.8-1.4l-2.8,1.4Zm0,44c0,1,1.2,.6,1.4,0,0-1-1.4-.6-1.4,0Zm3.8-57.8c-.4,0-1.2,.8-1.2,1.2l.6,.4c.8,0,1-.8,1-1.4l-.4-.2Zm1.8-10.2l.4-.6c0-.2-.2-.6-.4-.8-.8,0-.8,1.4,0,1.4Zm0,24.8l.4-.6c0-.2-.2-.6-.4-.8-.8,0-.8,1.4,0,1.4Zm-.6-30.2l.4,.6c1,0,1-1,.2-1.4-.4,0-.6,.4-.6,.8Zm2,61.6c.2-.2,.4-.4,.4-.6l-.4-.6c-.6,0-1,1.2,0,1.2Zm0-53.4l.4-.6c0-.2-.2-.6-.4-.8-.8,0-.8,1.4,0,1.4Zm0,17.8l.4-.6c0-.2-.2-.6-.4-.8-.8,0-.8,1.4,0,1.4Zm1-5c-.6,0-1.2,1-1.2,1.4l.4,.4c.8,0,1.2-1,1.2-1.6l-.4-.2Zm1.6-9.6c-.8-.6-1.8-.6-2.6,0,0,1,2.2,1,2.6,.2v-.2Zm0,17.4c.8,0,.8-1.4,0-1.4-.6,0-.6,1.4,0,1.4Zm0,31.6c.8,0,.8-1.4,0-1.4-.6,0-.6,1.4,0,1.4Zm0-55.6h1.4l-1.4-1.4v1.4Zm2.8,13c-.6,0-.6-1.4,0-1.4,.8,0,.8,1.4,0,1.4Zm0,12.4c.8,0,.8-1.4,0-1.4-.6,0-.6,1.4,0,1.4Zm2.8-26.2l.4-.6c0-.2-.2-.6-.4-.8-.8,0-.8,1.4,0,1.4Zm0,49.4l.4-.6c0-.2-.2-.6-.4-.8-.8,0-.8,1.4,0,1.4Zm0,5.6l.4-.6c0-.2-.2-.6-.4-.8-.8,0-.8,1.4,0,1.4Zm2.8-33l.4-.6c0-.2-.2-.6-.4-.8-.8,0-.8,1.4,0,1.4Zm1.2-3.4v-1.4h-1.2l1.2,1.4Zm1.4,8.2c1-1.2,1.6-2.6,1.6-4.2h-3.4c0,1.4,.2,3.6,1.8,4.2Zm0-6.2c.8,0,.8-1.4,0-1.4-.6,0-.6,1.4,0,1.4Zm2.8-22.6c2,0,1.6,3,1.4,4.2-.6-1.4-1.4-1.8-2.8-1.4,.8,1,2.4,5.2,0,5.4-1.2-2.6-3.2-8.2,1.4-8.2Zm0,13l.4-.6c0-.2-.2-.6-.4-.8-.6,0-.6,1.4,0,1.4Zm1.4,12.4l.4-.6c0-.2-.2-.6-.4-.8-.8,0-.8,1.4,0,1.4Z"/>
      <path d="M577.49,35.2l-19.2,81c-1,4.2,6.8,8.8,6.8,13.6s-3,6-6.8,7c-15.2,3.8-25.6,4.4-41.2,4.4-6.4,0-12.8-.4-19.2-.4-8.2,0-14.4-7.8-19.2-13.6-4-5-4.2-11.8-4.2-17.8,0-30.4,26-60.6,57.4-60.6,4,0,8,1.6,12,1.6,6.2,0,9-13.6,9-18.4,0-5.6-5.8-7.2-5.8-12.4,0-8,22.8-16.2,29.6-16.2,4,0,6.4,0,6.4,4.6,0,5.8-1.2,10.8-2.8,16.2-1.4,.2-3,.8-4.2,1.4,0,2.4,1.8,8,1.4,9.6Zm-93.4,70.6c.8,0,.8-1.4,0-1.4-.6,0-.6,1.4,0,1.4Zm4.2,0l.4-.6c0-.2-.2-.6-.4-.8-.6,0-.6,1.4,0,1.4Zm2.8,24.8l.4-.6c0-.2-.2-.6-.4-.8-.8,0-.8,1.4,0,1.4Zm4-2.8c.8,0,.8-1.4,0-1.4-.6,0-.6,1.4,0,1.4Zm1.4-60.4c.8,0,.8-1.4,0-1.4-.6,0-.6,1.4,0,1.4Zm1.4,42.6l.4-.6c0-.2-.2-.6-.4-.8-.6,0-.6,1.4,0,1.4Zm1.4,8.2l.4-.6c0-.2-.2-.6-.4-.8-.8,0-.8,1.4,0,1.4Zm1.4,2.8l.4-.6c0-.2-.2-.6-.4-.8-.8,0-.8,1.4,0,1.4Zm15.8,4.8c6.2,0,12.8-3.2,14.4-9.6l12.2-47.2c.2-.8,0-1.2-.2-1.8-1-3.6-5.6-3.4-8.4-3.4-23.2,0-32.6,27.6-32.6,46.8,0,2.4,.2,4.6,.2,7,4.2,5.6,7.2,8.2,14.4,8.2Zm-11.8,.6c.8,0,.8-1.4,0-1.4-.6,0-.6,1.4,0,1.4Zm13.8-70l.4-.6c0-.2-.2-.6-.4-.8-.6,0-.6,1.4,0,1.4Zm16.4,57c0,.8,2.4,.8,2.8,0,0-.8-2.8-.8-2.8,0Zm1.4-61.8c0,1,1.2,.6,1.4,0,0-1-1.4-.6-1.4,0Zm1.4,58.4l.4-.6c0-.2-.2-.6-.4-.8-.6,0-.6,1.4,0,1.4Zm1.4,8.2l.4-.6c0-.2-.2-.6-.4-.8-.8,0-.8,1.4,0,1.4Zm0-65.2c0,1,1.2,.6,1.4,0,0-1-1.4-.6-1.4,0Zm2.8,72l.4-.6c0-.2-.2-.6-.4-.8-.8,0-.8,1.4,0,1.4Zm2.6-30.2c.8,0,.8-1.4,0-1.4-.6,0-.6,1.4,0,1.4Zm0,19.2c1,0,.6-1.2,0-1.2-.4,0-.6,1.2,0,1.2Zm2.8-53.4l.4-.6c0-.2-.2-.6-.4-.8-.6,0-.6,1.4,0,1.4Zm1.4,1.4l.4-.6c0-.2-.2-.6-.4-.8-.8,0-.8,1.4,0,1.4Zm0,49.4l.4-.6c0-.2-.2-.6-.4-.8-.8,0-.8,1.4,0,1.4Zm1.4-46.8c.2-.2,.4-.4,.4-.6l-.4-.6c-.6,0-1,1.2,0,1.2Zm2.6-44.6l2.8-1.2c-1.2-.6-2.2,.2-2.8,1.2Zm2.8,20c.8,0,.8-1.4,0-1.4-.6,0-.6,1.4,0,1.4Zm0,19.2c.8,0,.8-1.4,0-1.4-.6,0-.6,1.4,0,1.4Zm0-22.6h1.4l-1.4-1.4v1.4Zm1.4-5.6h2.8l-1.4-1.4-1.4,1.4Zm1.4-3.4l.4-.6c0-.2-.2-.6-.4-.8-.8,0-.8,1.4,0,1.4Zm0,34.4l.4-.6c0-.2-.2-.6-.4-.8-.8,0-.8,1.4,0,1.4Zm1.4-16.6c.2-.2,.4-.4,.4-.6l-.4-.6c-.6,0-1,1.2,0,1.2Zm0-8.2l.4-.6c0-.2-.2-.6-.4-.8-.8,0-.8,1.4,0,1.4Zm0,2.8l.4-.6c0-.2-.2-.6-.4-.8-.8,0-.8,1.4,0,1.4Zm0,16.4l.4-.6c0-.2-.2-.6-.4-.8-.8,0-.8,1.4,0,1.4Zm2.6-26.8l1.4-1.2-1.4-1.4v2.6Zm2.8,3.6c.8,0,.8-1.4,0-1.4-.6,0-.6,1.4,0,1.4Zm5.6-7l.4-.6c0-.2-.2-.6-.4-.8-.8,0-.8,1.4,0,1.4Zm0,10.4h1.2v-1.4l-1.2,1.4Zm1.2-25.4c.8,0,.8-1.4,0-1.4-.6,0-.6,1.4,0,1.4Zm4.2,8.2l.4-.6c0-.2-.2-.6-.4-.8-.6,0-.6,1.4,0,1.4Zm0-6.2l1.4-1.4-1.4-1.4v2.8Zm1.4-5.4l1.4-1.4h-1.4v1.4Zm1.4,14.4l.4-.6c0-.2-.2-.6-.4-.8-.8,0-.8,1.4,0,1.4Zm1.4-12.4l.4-.6c0-.2-.2-.6-.4-.8-.8,0-.8,1.4,0,1.4Z"/>
      <path d="M267.6,155.8c3.2,.4,5.6,1.2,5.6,5,0,4.4-17.6,14.8-20.6,19.6l-66,109.8c-2.6,4.4-6.4,7-11.6,7-2,0-8.6-1.8-9-4.2l-9.6-74c-.2-2-2.6-1.8-4-1.4-2.6,3.6-6,7.2-8.2,11l-33,54.8c-7.4,5-5,12.4-16.4,12.4h-5.6c-1.4-1.2-3.8-3.6-4-5.6l-12.4-102.8c-1.4-11.6-12.6-16.6-23.2-16.6-26.8,0-31,15.6-31,38.8,2.6,0,4,2.6,6.8,2.6,9,0,12-11.2,21.4-11.2,6,0,11,3,11,9.6,0,8.6-3.6,12.6-9.6,18-3.4,0-6.4,3.2-9.6,4-1.2,.2-18,.2-19.4,0C5.4,229.6,0,211.8,0,199.6c0-24,19.4-41.8,42.6-43.8,2.6-.2,5.4,0,8,0,5.4-.2,10.6-.2,16-.2,14.2,0,28.4,0,42.4,1.2,1.6,0,3.6,0,5,.4,2.4,.6,3,2.6,3,4.8,0,6.8-11.2,8.8-12.6,14.4-.4,1.8-.2,6.2-.2,8.2,0,14.2,3.2,28.4,3.2,42.6,0,1.8-.2,3.6-.2,5.4,4.6,1.4-.2,12.6,5.4,12.6,2.2,0,3.2-1.2,4.2-3l30-49.4,2.8-1.4-1.4-1.2c2.6-4,3-6.2,3-11,0-8.8-10-9.2-10-17.4,0-5.8,7.4-6.2,11.6-6.2s8,.2,12,.2c.6,2.6,2.8,.8,4,0,8.2,0,19.8,2.6,27.4,1.4,1.8,.8,3,1.8,3,4,0,6.8-14,8-14,20.8,0,16,1.4,32.6,3.8,48.6,.4,1.8,2.2,14.4,4.6,14.4,2.8,0,13.6-20.4,16.4-23.4,1-1.2,3.2-2,3.2-3.8,0-.6-.2-1.2-.4-1.6l19.2-35.8c.2-1.4,.4-2.6,.4-4,0-7-8.8-8.2-8.8-14.4,0-1.4,2.6-6.2,4.2-6.2h19.2l1.4,2.8,1.4-.6v-2.8c5.8,0,12,0,17.8,.6ZM4.2,193.6l.4-.6c0-.2-.2-.6-.4-.8-.6,0-.6,1.4,0,1.4Zm6.8-5.6c.8,0,.8-1.4,0-1.4-.6,0-.6,1.4,0,1.4Zm4.2,23.4l.4-.6c0-.2-.2-.6-.4-.8-.8,0-.8,1.4,0,1.4Zm6.8-34.4c.8,0,.8-1.4,0-1.4-.6,0-.6,1.4,0,1.4Zm0,53.6c.8,0,.8-1.4,0-1.4-.6,0-.6,1.4,0,1.4Zm2.8-2h1.4v-1.4l-1.4,1.4Zm4,3.4c.8,0,.8-1.4,0-1.4-.6,0-.6,1.4,0,1.4Zm2.8-15.2c.8,0,.8-1.4,0-1.4-.6,0-.6,1.4,0,1.4Zm2.8,10.4v-2.8h-2.8l2.8,2.8Zm11-63.8l.4-.6c0-.2-.2-.6-.4-.8-.8,0-.8,1.4,0,1.4Zm2.8,63l.4-.6c0-.2-.2-.6-.4-.8-.8,0-.8,1.4,0,1.4Zm1.2-63c.8,0,.8-1.4,0-1.4-.6,0-.6,1.4,0,1.4Zm17.8-1c-.6,0-1.4,.8-1.4,1.4l.4,.4c.8,0,1.2-1,1.2-1.6l-.2-.2Zm2.8-1.8c.8,0,.8-1.4,0-1.4-.6,0-.6,1.4,0,1.4Zm12.4,26l.4-.6c0-.2-.2-.6-.4-.8-.6,0-.6,1.4,0,1.4Zm7.2,90h5.8c0-2.4-5.8-5.8-8-5.8,0,3,2.2,3.4,2.2,5.8Zm2.4-58.4l.4-.6c0-.2-.2-.6-.4-.8-.6,0-.6,1.4,0,1.4Zm0,6.8c.2-.2,.4-.4,.4-.6l-.4-.6c-.4,0-.6,1.2,0,1.2Zm1.4-46.6l.4-.6c0-.2-.2-.6-.4-.8-.8,0-.8,1.4,0,1.4Zm0,89.2l.4-.6c0-.2-.2-.6-.4-.8-.8,0-.8,1.4,0,1.4Zm1.4,13.8l.4-.6c0-.2-.2-.6-.4-.8-.8,0-.8,1.4,0,1.4Zm1.4-98.8l.4-.6c0-.2-.2-.6-.4-.8-.8,0-.8,1.4,0,1.4Zm0,86.4l.4-.6c0-.2-.2-.6-.4-.8-.8,0-.8,1.4,0,1.4Zm2.4,18.8c1.2,0,2.4-.4,3-1.6l-1.4-1.4c-1.2,.6-1.6,1.8-1.6,3Zm2.4-7.8l.4,.6c1,0,1-1,.2-1.4-.4,0-.6,.4-.6,.8Zm2-42.6l.4-.6c0-.2-.2-.6-.4-.8-.8,0-.8,1.4,0,1.4Zm0-22.6c0,1,1.2,.6,1.4,0,0-1-1.4-.6-1.4,0Zm26,28.8c.6-1.4-.2-2.2-1.4-2.8,0,1.6,0,2,1.4,2.8Zm5.6-3.4l.4-.6c0-.2-.2-.6-.4-.8-.8,0-.8,1.4,0,1.4Zm-.6-6.8l.4,.6c1,0,1-1,.2-1.4-.4,0-.6,.4-.6,.8Zm3.2-13.8c.8,0,.8-1.4,0-1.4-.6,0-.6,1.4,0,1.4Zm0,4.8c0,1,1.2,.6,1.4,0,0-1-1.4-.6-1.4,0Zm16.6-29.4l.4-.6c0-.2-.2-.6-.4-.8-.8,0-.8,1.4,0,1.4Zm2.6-31.6c.8,0,.8-1.4,0-1.4-.6,0-.6,1.4,0,1.4Zm1.4,49.4c.8,0,.8-1.4,0-1.4-.6,0-.6,1.4,0,1.4Zm4.2,37l.4-.6c0-.2-.2-.6-.4-.8-.8,0-.8,1.4,0,1.4Zm1.4-35.6l.4-.6c0-.2-.2-.6-.4-.8-.8,0-.8,1.4,0,1.4Zm2.6,17.8c.8,0,.8-1.4,0-1.4-.6,0-.6,1.4,0,1.4Zm0,17.8c.8,0,.8-1.4,0-1.4-.6,0-.6,1.4,0,1.4Zm0-87.2c0,.6,2.4,.8,2.8,0,0-.8-2.8-.8-2.8,0Zm5.6-2l.4-.6c0-.2-.2-.6-.4-.8-.8,0-.8,1.4,0,1.4Zm1.4,41.2l.4-.6c0-.2-.2-.6-.4-.8-.8,0-.8,1.4,0,1.4Zm0,56.2l.4-.6c0-.2-.2-.6-.4-.8-.8,0-.8,1.4,0,1.4Zm0,2.8l.4-.6c0-.2-.2-.6-.4-.8-.8,0-.8,1.4,0,1.4Zm2.8-100.2l.4-.6c0-.2-.2-.6-.4-.8-.8,0-.8,1.4,0,1.4Zm0,91.2l1.2-1.4h-1.2v1.4Zm1.2-21.2c.8,0,.8-1.4,0-1.4-.6,0-.6,1.4,0,1.4Zm0,65.8c.8,0,.8-1.4,0-1.4-.6,0-.6,1.4,0,1.4Zm.8-85l.4,.6c1,0,1-1,.2-1.4-.4,0-.6,.4-.6,.8Zm2-46.6c.8,0,.8-1.4,0-1.4-.6,0-.6,1.4,0,1.4Zm1.4,94.6l.4-.6c0-.2-.2-.6-.4-.8-.6,0-.6,1.4,0,1.4Zm0,22l.4-.6c0-.2-.2-.6-.4-.8-.6,0-.6,1.4,0,1.4Zm1.4-74.2l.4-.6c0-.2-.2-.6-.4-.8-.8,0-.8,1.4,0,1.4Zm-.6-8l.4,.6c.4,0,.8-.4,.8-.8-.2-.2-.4-.4-.6-.6-.4,0-.6,.4-.6,.8Zm.6,71.8h1.4l-1.4-1.4v1.4Zm1.4-55.6c.2-.2,.4-.4,.4-.6l-.4-.6c-.6,0-1,1.2,0,1.2Zm0-21.8l.4-.6c0-.2-.2-.6-.4-.8-.8,0-.8,1.4,0,1.4Zm0,28.8l.4-.6c0-.2-.2-.6-.4-.8-.8,0-.8,1.4,0,1.4Zm0,26.6l1.4-2.6c-1.2,.6-2,1.2-1.4,2.6Zm1.4-7.4l.4-.6c0-.2-.2-.6-.4-.8-.8,0-.8,1.4,0,1.4Zm0,41.2l.4-.6c0-.2-.2-.6-.4-.8-.8,0-.8,1.4,0,1.4Zm.6-22l.4,.6c.4,0,.8-.2,1-.6,0-.4-.4-.6-.8-.8-.4,0-.6,.4-.6,.8Zm.6-98.8c.8,0,.8-1.4,0-1.4-.6,0-.6,1.4,0,1.4Zm0,94.6c.8,0,.8-1.4,0-1.4-.6,0-.6,1.4,0,1.4Zm0-12.4c1,0,.6-1.2,0-1.2-.4,0-.6,1.2,0,1.2Zm1.4,31.6c.8,0,.8-1.4,0-1.4-.6,0-.6,1.4,0,1.4Zm.8-28.6l.4,.6c1,0,1-1,.2-1.4-.4,0-.6,.4-.6,.8Zm.6,23.8h4.2c-1.2-2-3-2-4.2,0Zm2.8,6.2l.4-.6c0-.2-.2-.6-.4-.8-.8,0-.8,1.4,0,1.4Zm4-11.6c2-2,2-4.4-1.4-4.4,0,1.6,.6,3,1.4,4.4Zm2.8-4.8c.8,0,.8-1.4,0-1.4-.6,0-.6,1.4,0,1.4Zm1.4-8.2l.4-.6c0-.2-.2-.6-.4-.8-.6,0-.6,1.4,0,1.4Zm1.4,9.6l.4-.6c0-.2-.2-.6-.4-.8-.8,0-.8,1.4,0,1.4Zm9.6-34.4l.4-.6c0-.2-.2-.6-.4-.8-.8,0-.8,1.4,0,1.4Zm11-12.4c.2-.2,.4-.4,.4-.6l-.4-.6c-.6,0-1,1.2,0,1.2Zm0-12.2l.4-.6c0-.2-.2-.6-.4-.8-.8,0-.8,1.4,0,1.4Zm1.2,3.4c1,0,1-1,.2-1.4-1.2,0-.8,1.4-.2,1.4Zm2.8-2c.8,0,.8-1.4,0-1.4-.6,0-.6,1.4,0,1.4Zm3.6,8.2l.4,.6c1,0,1-1,.2-1.4-.4,0-.6,.4-.6,.8Zm2-19.2l.4-.6c0-.2-.2-.6-.4-.8-.8,0-.8,1.4,0,1.4Zm2.6,8.2c.8,0,.8-1.4,0-1.4-.6,0-.6,1.4,0,1.4Zm0,4c1,0,.6-1.2,0-1.2-.4,0-.6,1.2,0,1.2Zm1.4-6.8c.8,0,.8-1.4,0-1.4-.6,0-.6,1.4,0,1.4Zm1.4-7.6c0,1,1.2,.6,1.4,0,0-1-1.4-.6-1.4,0Zm5,.8l.4,.6c1,0,1-1,.2-1.4-.4,0-.6,.4-.6,.8Zm6-12.4c.8,0,.8-1.4,0-1.4-.6,0-.6,1.4,0,1.4Zm12.4-13v-1.4h-1.4l1.4,1.4Zm1.4-6.2l.4-.6c0-.2-.2-.6-.4-.8-.8,0-.8,1.4,0,1.4Zm8.2,0l.4-.6c0-.2-.2-.6-.4-.8-.8,0-.8,1.4,0,1.4Z"/>
      <path d="M267.6,299.2c-19.8,0-32.2-14.6-32.2-33.8,0-23.2,13.6-45.2,34.4-55.6,.8-1,8.2-4,9.6-4h24.6c1.2,2.2,3.6,.4,4.2,2.8-.2,1-.2,1.8-.2,2.8,0,3.4,4.4,1.8,4.4,4.6,0,1.6-1.6,2.8-2.8,3.4,5,0,2.6,7-2,7v-5.6h-2.2v7.2c-1,0-2.2-.6-2.6-1.6-.4,2.2,2.2,9.8,3.4,9.8,2.4,0,5.4-10,6.8-10,1,0,1.8,.6,2,1.6,1.6-2.4,4.2-4,7-4.2-.6,1,.4,2.2,1.2,2.8v11l-2.6,2.6,1.4,1.4c-1,1.4-2.6,2.2-4.2,2.8h-7c-9.4,0-18.6,.4-28,.8-3.6,.2-8.2,0-11.6,.6-2.2,.4-4.2,2.4-5.6,4-1.6,6.2-4.2,12.2-4.2,18.6,0,16,8.4,11.4,11.2,17.2,6.6-1.4,14.2-2,19.2-7l13.6-13.6c.2-.2,3.8-1.4,4.2-1.4,3-.6,5.6,2.6,5.6,5.4,0,11.2-20.6,20.8-20.8,23.4-8.6,4.6-17,7-26.8,7Zm-23.8-55.8c.2-.2,.4-.4,.4-.6l-.4-.6c-.6,0-1,1.2,0,1.2Zm2.6-2c0,1,1.2,.6,1.4,0,0-1-1.4-.6-1.4,0Zm5.6-.6l.4-.6c0-.2-.2-.6-.4-.8-.8,0-.8,1.4,0,1.4Zm4,15c.8,0,.8-1.4,0-1.4-.6,0-.6,1.4,0,1.4Zm0-12.4c1,0,.6-1.2,0-1.2-.4,0-.6,1.2,0,1.2Zm2.8-23.2l.4-.6c0-.2-.2-.6-.4-.8-.6,0-.6,1.4,0,1.4Zm0,13.6c.2-.2,.4-.4,.4-.6l-.4-.6c-.4,0-.6,1.2,0,1.2Zm1.4,4.2l.4-.6c0-.2-.2-.6-.4-.8-.8,0-.8,1.4,0,1.4Zm2.4,44.4c-.6,0-1.2,1-1.2,1.4l.6,.4c.6,0,1-1,1-1.6l-.4-.2Zm.4-37.6l.4-.6c0-.2-.2-.6-.4-.8-.8,0-.8,1.4,0,1.4Zm1.2-24.6c.8,0,.8-1.4,0-1.4-.6,0-.6,1.4,0,1.4Zm1.4,2.8c.8,0,.8-1.4,0-1.4-.6,0-.6,1.4,0,1.4Zm2.4-2.6c2.6,0,6-.8,7-3.4-1.6,2.2-3.6,.8-5.2-.2-1.6,0-1.8,2.4-1.8,3.6Zm.4,3.8c.2-.2,.4-.4,.4-.6l-.4-.6c-.4,0-.6,1.2,0,1.2Zm4.2,5.6l.4-.6c0-.2-.2-.6-.4-.8-.8,0-.8,1.4,0,1.4Zm0,8.2l.4-.6c0-.2-.2-.6-.4-.8-.8,0-.8,1.4,0,1.4Zm1.4-26l.4-.6c0-.2-.2-.6-.4-.8-.8,0-.8,1.4,0,1.4Zm0,85l.4-.6c0-.2-.2-.6-.4-.8-.8,0-.8,1.4,0,1.4Zm2.6-79c0,1,1,1,1.4,.2,0-1.2-1.4-.8-1.4-.2Zm16.6,11c2.6-.4,2.4-11-7-11-4.6,0-9.6,3.2-9.6,8.2,0,1.8,1.4,3.6,1.4,5.6l15.2-2.8Zm-15.2-17c.8,0,.8-1.4,0-1.4-.6,0-.6,1.4,0,1.4Zm1.4,21.8c.2-.2,.4-.4,.4-.6l-.4-.6c-.4,0-.6,1.2,0,1.2Zm2.8-21.2h4c-.8-2-3.2-2-4,0Zm1.4-4.8l.4-.6c0-.2-.2-.6-.4-.8-.8,0-.8,1.4,0,1.4Zm1.2,35c0,1,1.2,.6,1.4,0,0-1-1.4-.6-1.4,0Zm2.8-6.2c.8,0,.8-1.4,0-1.4-.6,0-.6,1.4,0,1.4Zm1.4,48.8h1.4v-1.4l-1.4,1.4Zm2.8-70.8c.2-.2,.4-.4,.4-.6l-.4-.6c-.6,0-1,1.2,0,1.2Zm2.6,66.6v-1.4h-1.2l1.2,1.4Zm0-39.8c1.6,.4,2.2,0,2.8-1.4l-2.8,1.4Zm0,44c0,1,1.2,.6,1.4,0,0-1-1.4-.6-1.4,0Zm3.8-57.8c-.4,0-1.2,.8-1.2,1.2l.6,.4c.8,0,1-.8,1-1.4l-.4-.2Zm1.2-15.6l.4,.6c1,0,1-1,.2-1.4-.4,0-.6,.4-.6,.8Zm.6,5.4l.4-.6c0-.2-.2-.6-.4-.8-.8,0-.8,1.4,0,1.4Zm0,24.8l.4-.6c0-.2-.2-.6-.4-.8-.8,0-.8,1.4,0,1.4Zm1.4,31.4c.2-.2,.4-.4,.4-.6l-.4-.6c-.6,0-1,1.2,0,1.2Zm0-53.4l.4-.6c0-.2-.2-.6-.4-.8-.8,0-.8,1.4,0,1.4Zm0,17.8l.4-.6c0-.2-.2-.6-.4-.8-.8,0-.8,1.4,0,1.4Zm1-5c-.6,0-1.2,1-1.2,1.4l.4,.4c.8,0,1.2-1,1.2-1.6l-.4-.2Zm1.6-9.6c-.8-.6-1.8-.6-2.6,0,0,1,2.2,1,2.6,.2v-.2Zm0,17.4c.8,0,.8-1.4,0-1.4-.6,0-.6,1.4,0,1.4Zm0,31.6c.8,0,.8-1.4,0-1.4-.6,0-.6,1.4,0,1.4Zm0-55.6h1.4l-1.4-1.4v1.4Zm2.8,13c-.6,0-.6-1.4,0-1.4,.8,0,.8,1.4,0,1.4Zm0,12.4c.8,0,.8-1.4,0-1.4-.6,0-.6,1.4,0,1.4Zm2.8-26.2l.4-.6c0-.2-.2-.6-.4-.8-.8,0-.8,1.4,0,1.4Zm0,49.4l.4-.6c0-.2-.2-.6-.4-.8-.8,0-.8,1.4,0,1.4Zm0,5.6l.4-.6c0-.2-.2-.6-.4-.8-.8,0-.8,1.4,0,1.4Zm2.8-33l.4-.6c0-.2-.2-.6-.4-.8-.8,0-.8,1.4,0,1.4Zm1.2-3.4v-1.4h-1.2l1.2,1.4Zm1.4,8.2c1-1.2,1.6-2.6,1.6-4.2h-3.4c0,1.4,.2,3.6,1.8,4.2Zm0-6.2c.8,0,.8-1.4,0-1.4-.6,0-.6,1.4,0,1.4Zm2.8-22.6c2,0,1.6,3,1.4,4.2-.6-1.4-1.4-1.8-2.8-1.4,.8,1,2.4,5.2,0,5.4-1.2-2.6-3.2-8.2,1.4-8.2Zm0,13l.4-.6c0-.2-.2-.6-.4-.8-.6,0-.6,1.4,0,1.4Zm1.4,12.4l.4-.6c0-.2-.2-.6-.4-.8-.8,0-.8,1.4,0,1.4Z"/>
      <path d="M349.4,297.8c-12.4,0-25.4-2.8-25.4-17.8,0-23.2,21.4-31.4,40.4-36.8,5.2-1.6,10.8-2.8,16-4.6,5.2-2,7-7.2,7-12.4,0-4.2-2.2-8.2-7-8.2-12.4,0-16.2,16.8-28.6,16.8-4.6,0-7.2-2.8-7.2-7.4,0-17.6,26.6-21.8,40-21.8s27.4,5.6,27.4,21.6c0,8.8-3,16.8-5.6,25.2-3,1.6-4.4,18.2-4.4,21.8,0,7,6,9,6,15.2,0,8.2-9,8.4-15,8.4-8.6,0-11.8,0-19.6-4.2-9.6,3.6-13.8,4.2-24,4.2Zm-21.2-13.2l.4-.6c0-.2-.2-.6-.4-.8-.6,0-.6,1.4,0,1.4Zm17.8-20.6c1,0,.6-1.2,0-1.2-.4,0-.6,1.2,0,1.2Zm1.4,1.4l.4-.6c0-.2-.2-.6-.4-.8-.6,0-.6,1.4,0,1.4Zm12.8,17.4c13,0,19-11.2,19-23,0-3.2-1-6.2-4.8-6.2-11.4,0-25.6,8.2-25.6,20.8,0,7.4,5.2,8.4,11.4,8.4Zm6.4,4.6c.8,0,.8-1.4,0-1.4-.6,0-.6,1.4,0,1.4Zm0,5.4c1,0,.6-1.2,0-1.2-.4,0-.6,1.2,0,1.2Zm4.2-8.2l.4-.6c0-.2-.2-.6-.4-.8-.8,0-.8,1.4,0,1.4Zm1.4-70c.2-.2,.4-.4,.4-.6l-.4-.6c-.6,0-1,1.2,0,1.2Zm0-2.6l.4-.6c0-.2-.2-.6-.4-.8-.8,0-.8,1.4,0,1.4Zm6.6-2.2c.4,0,.6-.2,.8-.6-.2-.2-.4-.4-.6-.6-.8,0-.8,1-.2,1.2Zm3,57l.4-.6c0-.2-.2-.6-.4-.8-.8,0-.8,1.4,0,1.4Zm1.2-57.6c.8,0,.8-1.4,0-1.4-.6,0-.6,1.4,0,1.4Zm8.4,17.2l1.2-2.8h-1.2v2.8Zm6.8,4.8l.4-.6c0-.2-.2-.6-.4-.8-.8,0-.8,1.4,0,1.4Z"/>
      <path d="M466.8,228.4l-7.4,27.4c-1.4,5.4-2.4,8.4-3.6,13.8v10.8c0,5,12.4,4.2,12.4,10.2,0,8-10,9.2-16,9.2-13.2,0-24-4.2-24-19.2,0-1.2,0-3,.2-4.2l11-44c.4-1.4,.2-3.4,.2-4.8,0-6-5.8-7.4-5.8-12.2,10.6-10.2,21.6-20.2,31.6-31,2.2-2.4,4-2.8,7.2-2.8,8,0,1,16.4,1,21.4,0,8.4,15.2,2.4,15.2,10.8,0,2.4-.6,5-2.8,6.4-6.4,.4-17.2,.4-19.2,8.2Zm-31.6,37.6c1,0,.6-1.2,0-1.2-.4,0-.6,1.2,0,1.2Zm5.6,26.2l.4-.6c0-.2-.2-.6-.4-.8-.8,0-.8,1.4,0,1.4Zm4-27.4c.8,0,.8-1.4,0-1.4-.6,0-.6,1.4,0,1.4Zm0,5.4c.8,0,.8-1.4,0-1.4-.6,0-.6,1.4,0,1.4Zm0-44c1,0,.6-1.2,0-1.2-.4,0-.6,1.2,0,1.2Zm2.8,37.2l.4-.6c0-.2-.2-.6-.4-.8-.6,0-.6,1.4,0,1.4Zm2.4-14.6c-.4,0-1.2,.8-1.2,1.2l.6,.4c.8,0,1-.8,1-1.4l-.4-.2Zm.4-18.4l.4-.6c0-.2-.2-.6-.4-.8-.8,0-.8,1.4,0,1.4Zm1-6.4c-.6,0-1.2,1-1.2,1.4l.6,.4c.6,0,1-1,1-1.6l-.4-.2Zm-1,62c0,1,1.2,.6,1.4,0,0-1-1.4-.6-1.4,0Zm1.4-26.8l.4-.6c0-.2-.2-.6-.4-.8-.8,0-.8,1.4,0,1.4Zm0,9.6l.4-.6c0-.2-.2-.6-.4-.8-.8,0-.8,1.4,0,1.4Zm0-48.6h1.2v-1.4h-1.2v1.4Zm1.2,30.8c.8,0,.8-1.4,0-1.4-.6,0-.6,1.4,0,1.4Zm1.4-26.8c0,1,1.2,.6,1.4,0,0-1-1.4-.6-1.4,0Zm1.4-8.8c.8,0,.8-1.4,0-1.4-.6,0-.6,1.4,0,1.4Zm2.8,26l.4-.6c0-.2-.2-.6-.4-.8-.8,0-.8,1.4,0,1.4Zm6.8-30.2c.8,0,.8-1.4,0-1.4-.6,0-.6,1.4,0,1.4Z"/>
      <path d="M571.39,324c11.4,0,10.4-19.6,23.6-19.6,6,0,11.8,5.2,11.8,11.2,0,16.8-24,21.8-37.2,21.8-16.2,0-30.4-9.2-30.4-26.6,0-1.4-.2-3.4,.2-4.8l19.2-77c1.8-7-3.2-13.8-10.4-13.8-26,0-20,43.4-29.4,48.2l1.4,1.4c-.4,3.6-1,7.2-1.4,10.8-.6,6.4,8.4,8.6,8.4,14.6,0,2.4-3.2,6.2-5.6,6.2h-41.2c-1.4,0-2.8-3.8-2.8-5,0-5.4,11-6.4,12.4-11.6l23.4-91.8c.2-1,.2-2.8,.2-3.8,0-5.4-5.8-7.2-5.8-12.6,0-6,22.8-16.6,28.2-16.6,.6,0,2.6,2.2,3.4,2.8,.6-.2,2.4-1.4,2.8-1.4,2,0,1.6,7.4,1.6,8.8,0,3.4-.4,6.4-3,9l1.4,1.4c-1,4-4.2,17.8-4.2,21.2,0,2.4,.4,4.8,.6,7.2,8,0,15.8-2.4,23.8-2.4,11.6,0,22.6,2.4,22.6,16.4,0,11-3,21.2-5.8,31.6-.6,.8-2.2,3.2-1.4,4.2l-13.6,53.4c-1.2,5.2-.2,16.8,7.2,16.8Zm-84.2-29.8c.8,0,.8-1.4,0-1.4-.6,0-.6,1.4,0,1.4Zm7-12.2l.4-.6c0-.2-.2-.6-.4-.8-.8,0-.8,1.4,0,1.4Zm12.2,12.2c.8,0,.8-1.4,0-1.4-.6,0-.6,1.4,0,1.4Zm2.8-16.4c.8,0,.8-1.4,0-1.4-.6,0-.6,1.4,0,1.4Zm2.8-49.4l.4-.6c0-.2-.2-.6-.4-.8-.8,0-.8,1.4,0,1.4Zm0,6.8l.4-.6c0-.2-.2-.6-.4-.8-.8,0-.8,1.4,0,1.4Zm4.2-13.6l.4-.6c0-.2-.2-.6-.4-.8-.8,0-.8,1.4,0,1.4Zm1.2,13.6c.8,0,.8-1.4,0-1.4-.6,0-.6,1.4,0,1.4Zm1.4-3.4c1.4-.8,1.4-1.2,1.4-2.8-1.4,.8-1.4,1.4-1.4,2.8Zm1.4-14.4c.8,0,.8-1.4,0-1.4-.6,0-.6,1.4,0,1.4Zm0,70c.8,0,.8-1.4,0-1.4-.6,0-.6,1.4,0,1.4Zm1.4-82.4c.2-.2,.4-.4,.4-.6l-.4-.6c-.4,0-.6,1.2,0,1.2Zm0,48c.2-.2,.4-.4,.4-.6l-.4-.6c-.4,0-.6,1.2,0,1.2Zm1.4-26l.4-.6c0-.2-.2-.6-.4-.8-.8,0-.8,1.4,0,1.4Zm0,15.2l.4-.6c0-.2-.2-.6-.4-.8-.8,0-.8,1.4,0,1.4Zm0,4l.4-.6c0-.2-.2-.6-.4-.8-.8,0-.8,1.4,0,1.4Zm1.4-22c.2-.2,.4-.4,.4-.6l-.4-.6c-.6,0-1,1.2,0,1.2Zm0-60.2l.4-.6c0-.2-.2-.6-.4-.8-.8,0-.8,1.4,0,1.4Zm0,42.4l.4-.6c0-.2-.2-.6-.4-.8-.8,0-.8,1.4,0,1.4Zm0,24.8l.4-.6c0-.2-.2-.6-.4-.8-.8,0-.8,1.4,0,1.4Zm2.6,1.4c.8,0,.8-1.4,0-1.4-.6,0-.6,1.4,0,1.4Zm0-15.8h1.4l-1.4-1.4v1.4Zm4.2-4.8l.4-.6c0-.2-.2-.6-.4-.8-.6,0-.6,1.4,0,1.4Zm2.8-48l.4-.6c0-.2-.2-.6-.4-.8-.8,0-.8,1.4,0,1.4Zm-.6,48l.4,.6c1,0,1-1,.2-1.4-.4,0-.6,.4-.6,.8Zm2,5.4l.4-.6c0-.2-.2-.6-.4-.8-.8,0-.8,1.4,0,1.4Zm5.8-62.4c0,.2-.2,.4-.4,.6-.6,0-.4-1.2,0-1.2l.4,.6Zm.2,4.8c-1,0-.4,1,0,1.4,.8,0,1.4-1.4,0-1.4Zm.8,160.6l.4-.6c0-.2-.2-.6-.4-.8-.8,0-.8,1.4,0,1.4Zm5.4,6.8c.8,0,.8-1.4,0-1.4-.6,0-.6,1.4,0,1.4Zm4.2-46.6l.4-.6c0-.2-.2-.6-.4-.8-.8,0-.8,1.4,0,1.4Zm0,35.6l.4-.6c0-.2-.2-.6-.4-.8-.8,0-.8,1.4,0,1.4Zm2.8-101.6c.2-.2,.4-.4,.4-.6l-.4-.6c-.6,0-1,1.2,0,1.2Zm0,115.4l.4-.6c0-.2-.2-.6-.4-.8-.8,0-.8,1.4,0,1.4Zm1.2-79.6c.8,0,.8-1.4,0-1.4-.6,0-.6,1.4,0,1.4Zm.8-6.8l.4,.6c1,0,1-1,.2-1.4-.4,0-.6,.4-.6,.8Zm.6,74c.8,0,.8-1.4,0-1.4-.6,0-.6,1.4,0,1.4Zm1.4-78.2c.8,0,.8-1.4,0-1.4-.6,0-.6,1.4,0,1.4Zm0,89.2c.8,0,.8-1.4,0-1.4-.6,0-.6,1.4,0,1.4Zm2.8-41.2l.4-.6c0-.2-.2-.6-.4-.8-.8,0-.8,1.4,0,1.4Zm4-23.4c1,0,.6-1.2,0-1.2-.4,0-.6,1.2,0,1.2Zm5.6,72.8l.4-.6c0-.2-.2-.6-.4-.8-.8,0-.8,1.4,0,1.4Zm1.4-116.6l.4-.6c0-.2-.2-.6-.4-.8-.8,0-.8,1.4,0,1.4Zm2.6,15c.8,0,.8-1.4,0-1.4-.6,0-.6,1.4,0,1.4Zm0,94.8c.8,0,.8-1.4,0-1.4-.6,0-.6,1.4,0,1.4Zm8.4-112.6l.4-.6c0-.2-.2-.6-.4-.8-.8,0-.8,1.4,0,1.4Zm1.4,115.2c.2-.2,.4-.4,.4-.6l-.4-.6c-.6,0-1,1.2,0,1.2Zm10.8-2.6c.8,0,.8-1.4,0-1.4-.6,0-.6,1.4,0,1.4Z"/>
      <path d="M627.39,299.2c-19.8,0-32.2-14.6-32.2-33.8,0-23.2,13.6-45.2,34.4-55.6,.8-1,8.2-4,9.6-4h24.6c1.2,2.2,3.6,.4,4.2,2.8-.2,1-.2,1.8-.2,2.8,0,3.4,4.4,1.8,4.4,4.6,0,1.6-1.6,2.8-2.8,3.4,5,0,2.6,7-2,7v-5.6h-2.2v7.2c-1,0-2.2-.6-2.6-1.6-.4,2.2,2.2,9.8,3.4,9.8,2.4,0,5.4-10,6.8-10,1,0,1.8,.6,2,1.6,1.6-2.4,4.2-4,7-4.2-.6,1,.4,2.2,1.2,2.8v11l-2.6,2.6,1.4,1.4c-1,1.4-2.6,2.2-4.2,2.8h-7c-9.4,0-18.6,.4-28,.8-3.6,.2-8.2,0-11.6,.6-2.2,.4-4.2,2.4-5.6,4-1.6,6.2-4.2,12.2-4.2,18.6,0,16,8.4,11.4,11.2,17.2,6.6-1.4,14.2-2,19.2-7l13.6-13.6c.2-.2,3.8-1.4,4.2-1.4,3-.6,5.6,2.6,5.6,5.4,0,11.2-20.6,20.8-20.8,23.4-8.6,4.6-17,7-26.8,7Zm-23.8-55.8c.2-.2,.4-.4,.4-.6l-.4-.6c-.6,0-1,1.2,0,1.2Zm2.6-2c0,1,1.2,.6,1.4,0,0-1-1.4-.6-1.4,0Zm5.6-.6l.4-.6c0-.2-.2-.6-.4-.8-.8,0-.8,1.4,0,1.4Zm4,15c.8,0,.8-1.4,0-1.4-.6,0-.6,1.4,0,1.4Zm0-12.4c1,0,.6-1.2,0-1.2-.4,0-.6,1.2,0,1.2Zm2.8-23.2l.4-.6c0-.2-.2-.6-.4-.8-.6,0-.6,1.4,0,1.4Zm0,13.6c.2-.2,.4-.4,.4-.6l-.4-.6c-.4,0-.6,1.2,0,1.2Zm1.4,4.2l.4-.6c0-.2-.2-.6-.4-.8-.8,0-.8,1.4,0,1.4Zm2.4,44.4c-.6,0-1.2,1-1.2,1.4l.6,.4c.6,0,1-1,1-1.6l-.4-.2Zm.4-37.6l.4-.6c0-.2-.2-.6-.4-.8-.8,0-.8,1.4,0,1.4Zm1.2-24.6c.8,0,.8-1.4,0-1.4-.6,0-.6,1.4,0,1.4Zm1.4,2.8c.8,0,.8-1.4,0-1.4-.6,0-.6,1.4,0,1.4Zm2.4-2.6c2.6,0,6-.8,7-3.4-1.6,2.2-3.6,.8-5.2-.2-1.6,0-1.8,2.4-1.8,3.6Zm.4,3.8c.2-.2,.4-.4,.4-.6l-.4-.6c-.4,0-.6,1.2,0,1.2Zm4.2,5.6l.4-.6c0-.2-.2-.6-.4-.8-.8,0-.8,1.4,0,1.4Zm0,8.2l.4-.6c0-.2-.2-.6-.4-.8-.8,0-.8,1.4,0,1.4Zm1.4-26l.4-.6c0-.2-.2-.6-.4-.8-.8,0-.8,1.4,0,1.4Zm0,85l.4-.6c0-.2-.2-.6-.4-.8-.8,0-.8,1.4,0,1.4Zm2.6-79c0,1,1,1,1.4,.2,0-1.2-1.4-.8-1.4-.2Zm16.6,11c2.6-.4,2.4-11-7-11-4.6,0-9.6,3.2-9.6,8.2,0,1.8,1.4,3.6,1.4,5.6l15.2-2.8Zm-15.2-17c.8,0,.8-1.4,0-1.4-.6,0-.6,1.4,0,1.4Zm1.4,21.8c.2-.2,.4-.4,.4-.6l-.4-.6c-.4,0-.6,1.2,0,1.2Zm2.8-21.2h4c-.8-2-3.2-2-4,0Zm1.4-4.8l.4-.6c0-.2-.2-.6-.4-.8-.8,0-.8,1.4,0,1.4Zm1.2,35c0,1,1.2,.6,1.4,0,0-1-1.4-.6-1.4,0Zm2.8-6.2c.8,0,.8-1.4,0-1.4-.6,0-.6,1.4,0,1.4Zm1.4,48.8h1.4v-1.4l-1.4,1.4Zm2.8-70.8c.2-.2,.4-.4,.4-.6l-.4-.6c-.6,0-1,1.2,0,1.2Zm2.6,66.6v-1.4h-1.2l1.2,1.4Zm0-39.8c1.6,.4,2.2,0,2.8-1.4l-2.8,1.4Zm0,44c0,1,1.2,.6,1.4,0,0-1-1.4-.6-1.4,0Zm3.8-57.8c-.4,0-1.2,.8-1.2,1.2l.6,.4c.8,0,1-.8,1-1.4l-.4-.2Zm1.8-10.2l.4-.6c0-.2-.2-.6-.4-.8-.8,0-.8,1.4,0,1.4Zm0,24.8l.4-.6c0-.2-.2-.6-.4-.8-.8,0-.8,1.4,0,1.4Zm-.6-30.2l.4,.6c1,0,1-1,.2-1.4-.4,0-.6,.4-.6,.8Zm2,61.6c.2-.2,.4-.4,.4-.6l-.4-.6c-.6,0-1,1.2,0,1.2Zm0-53.4l.4-.6c0-.2-.2-.6-.4-.8-.8,0-.8,1.4,0,1.4Zm0,17.8l.4-.6c0-.2-.2-.6-.4-.8-.8,0-.8,1.4,0,1.4Zm1-5c-.6,0-1.2,1-1.2,1.4l.4,.4c.8,0,1.2-1,1.2-1.6l-.4-.2Zm1.6-9.6c-.8-.6-1.8-.6-2.6,0,0,1,2.2,1,2.6,.2v-.2Zm0,17.4c.8,0,.8-1.4,0-1.4-.6,0-.6,1.4,0,1.4Zm0,31.6c.8,0,.8-1.4,0-1.4-.6,0-.6,1.4,0,1.4Zm0-55.6h1.4l-1.4-1.4v1.4Zm2.8,13c-.6,0-.6-1.4,0-1.4,.8,0,.8,1.4,0,1.4Zm0,12.4c.8,0,.8-1.4,0-1.4-.6,0-.6,1.4,0,1.4Zm2.8-26.2l.4-.6c0-.2-.2-.6-.4-.8-.8,0-.8,1.4,0,1.4Zm0,49.4l.4-.6c0-.2-.2-.6-.4-.8-.8,0-.8,1.4,0,1.4Zm0,5.6l.4-.6c0-.2-.2-.6-.4-.8-.8,0-.8,1.4,0,1.4Zm2.8-33l.4-.6c0-.2-.2-.6-.4-.8-.8,0-.8,1.4,0,1.4Zm1.2-3.4v-1.4h-1.2l1.2,1.4Zm1.4,8.2c1-1.2,1.6-2.6,1.6-4.2h-3.4c0,1.4,.2,3.6,1.8,4.2Zm0-6.2c.8,0,.8-1.4,0-1.4-.6,0-.6,1.4,0,1.4Zm2.8-22.6c2,0,1.6,3,1.4,4.2-.6-1.4-1.4-1.8-2.8-1.4,.8,1,2.4,5.2,0,5.4-1.2-2.6-3.2-8.2,1.4-8.2Zm0,13l.4-.6c0-.2-.2-.6-.4-.8-.6,0-.6,1.4,0,1.4Zm1.4,12.4l.4-.6c0-.2-.2-.6-.4-.8-.8,0-.8,1.4,0,1.4Z"/>
      <path d="M687.79,298.6c-3,0-8.4-1-9.6-4.2,0-.2-.2-.6-.2-.8-.4-4.8,11.8-9.6,14-15.6,1.2-3.4,2-7,3-10.4,1.8-6,3.6-12.2,5.2-18.4l2.8-1.4-2.8-1.4c.4-2.4,1-5,1.4-7.4,.6-3.4-11.2-13.2-2.8-17.2l23.4-11c8.2-.8,9.4,2.8,15,2.8,6.8,0,12.8-4.4,19.6-4.4s12.2,.8,12.2,9.2c0,4-2.4,9.6-7,10.2-1.6,.2-8.8-.4-11.2-.4-8.8,0-20,1.6-23.2,11.4l-6.8,20.6-2.8,2.8v9.6l-1.2,2.6c0,7.4,.8,13,8.2,16.6,0,3.4-2.2,5.8-5.6,5.8v-1.8l-2.6,2.8c-9.6,.2-19.4,0-29,0Zm11.8-37.6l.4,.6c1,0,1-1,.2-1.4-.4,0-.6,.4-.6,.8Zm.6-5.6c.8,0,.8-1.4,0-1.4-.6,0-.6,1.4,0,1.4Zm1.4,1.4l.4-.6c0-.2-.2-.6-.4-.8-.6,0-.6,1.4,0,1.4Zm0,8.2l.4-.6c0-.2-.2-.6-.4-.8-.6,0-.6,1.4,0,1.4Zm2.8-11.6c0-2-1-2.4-2.8-2.8-.8,1.8,1.4,2.6,2.8,2.8Zm-1.4,26.6c.2-.2,.4-.4,.4-.6l-.4-.6c-.6,0-1,1.2,0,1.2Zm0-46c0,1,1,1,1.4,.2,0-1.2-1.4-.8-1.4-.2Zm.8-4.6l.4,.6c1,0,1-1,.2-1.4-.4,0-.6,.4-.6,.8Zm.6,26.6c0,1,1.2,.6,1.4,0,0-1-1.4-.6-1.4,0Zm0,11h1.4v-1.4l-1.4,1.4Zm2.6-8.8c.8,0,.8-1.4,0-1.4-.6,0-.6,1.4,0,1.4Zm1.2-6.4c-.6,0-1.4,.8-1.4,1.4l.4,.2c1,0,1.2-.6,1.2-1.4l-.2-.2Zm.2,11.2c-.4,1-1.4,7.4-1.4,8.8,3.4,0,3.4-6.4,3.4-8.8h-2Zm-1.4,15.4c2.2,0,2-3.8,5.6-.4,0-3.4-3-2.8-5.6-2.8v3.2Zm2.2-31.2l.4,.6c1,0,1-1,.2-1.4-.4,0-.6,.4-.6,.8Zm.6-13.8c.8,0,.8-1.4,0-1.4-.6,0-.6,1.4,0,1.4Zm0,25.4c0,1,1.2,.6,1.4,0,0-1-1.4-.6-1.4,0Zm1.4,22.6l.4-.6c0-.2-.2-.6-.4-.8-.6,0-.6,1.4,0,1.4Zm0,15.2l.4-.6c0-.2-.2-.6-.4-.8-.6,0-.6,1.4,0,1.4Zm0-46.8c.2-.2,.4-.4,.4-.6l-.4-.6c-.4,0-.6,1.2,0,1.2Zm1.4,4.8l1.4-1.2h-1.4v1.2Zm1.4-10.2l.4-.6c0-.2-.2-.6-.4-.8-.8,0-.8,1.4,0,1.4Zm0,22l.4-.6c0-.2-.2-.6-.4-.8-.8,0-.8,1.4,0,1.4Zm0,30.8c2-.4,1.4-4.2,1.4-5.4-1.8,.4-2.2,4.4-1.4,5.4Zm1-35.8c-.6,0-1.2,1-1.2,1.4l.4,.2c.8,0,1.2-.8,1.2-1.4l-.4-.2Zm-1.2,9.8h1.6v-4.2c-.8,1.2-1.6,2.8-1.6,4.2Zm1.6,8.8c.2-.2,.4-.4,.4-.6l-.4-.6c-.6,0-1,1.2,0,1.2Zm0,9.6c.2-.2,.4-.4,.4-.6l-.4-.6c-.6,0-1,1.2,0,1.2Zm1.4-49.4c.2-.2,.4-.4,.4-.6l-.4-.6c-.6,0-1,1.2,0,1.2Zm0,18.6l2.6-2.8c-1.6,0-3.4,1-2.6,2.8Zm1.2-9c1,0,.6-1.2,0-1.2-.4,0-.6,1.2,0,1.2Zm1.4,39.8c1,0,.6-1.2,0-1.2-.4,0-.6,1.2,0,1.2Zm.8-43.8l.4,.6c1,0,1-1,.2-1.4-.4,0-.6,.4-.6,.8Zm.6,45.2c.8,0,.8-1.4,0-1.4-.6,0-.6,1.4,0,1.4Zm2.8-56.2l.4-.6c0-.2-.2-.6-.4-.8-.8,0-.8,1.4,0,1.4Zm0,59l.4-.6c0-.2-.2-.6-.4-.8-.8,0-.8,1.4,0,1.4Zm27.4-79.6l.4-.6c0-.2-.2-.6-.4-.8-.6,0-.6,1.4,0,1.4Z"/>
    </g>
  </g>
</svg>